{
  "accessors": [
    {
      "bufferView": 2,
      "componentType": 5126,
      "count": 19,
      "max": [
        0.739799976348877,
        0.843271017074585,
        0.29304999113082886
      ],
      "min": [
        -1.032580018043518,
        -1.2557250261306763,
        -0.473706990480423
      ],
      "type": "VEC3"
    },
    {
      "bufferView": 2,
      "byteOffset": 228,
      "componentType": 5126,
      "count": 19,
      "max": [
        0.9145762920379639,
        0.9249719977378845,
        0.022148989140987396
      ],
      "min": [
        -0.9998693466186523,
        -0.7227007746696472,
        -0.9284707903862
      ],
      "type": "VEC3"
    },
    {
      "bufferView": 1,
      "componentType": 5126,
      "count": 19,
      "max": [
        0.0,
        0.0
      ],
      "min": [
        0.0,
        0.0
      ],
      "type": "VEC2"
    },
    {
      "bufferView": 0,
      "componentType": 5125,
      "count": 27,
      "type": "SCALAR"
    },
    {
      "bufferView": 2,
      "byteOffset": 456,
      "componentType": 5126,
      "count": 4085,
      "max": [
        1.0335270166397095,
        2.565898895263672,
        0.3527210056781769
      ],
      "min": [
        -1.0679349899291992,
        -1.8428239822387695,
        -0.5120999813079834
      ],
      "type": "VEC3"
    },
    {
      "bufferView": 2,
      "byteOffset": 49476,
      "componentType": 5126,
      "count": 4085,
      "max": [
        1.0,
        1.0,
        1.0
      ],
      "min": [
        -1.0,
        -1.0,
        -1.0
      ],
      "type": "VEC3"
    },
    {
      "bufferView": 1,
      "byteOffset": 152,
      "componentType": 5126,
      "count": 4085,
      "max": [
        0.9504169821739197,
        0.9612439870834351
      ],
      "min": [
        0.014423999935388565,
        0.03369800001382828
      ],
      "type": "VEC2"
    },
    {
      "bufferView": 0,
      "byteOffset": 108,
      "componentType": 5125,
      "count": 13311,
      "type": "SCALAR"
    },
    {
      "bufferView": 2,
      "byteOffset": 98496,
      "componentType": 5126,
      "count": 320,
      "max": [
        -0.2178879976272583,
        -0.7458980083465576,
        0.3071179986000061
      ],
      "min": [
        -0.8026829957962036,
        -1.330693006515503,
        0.11390899866819382
      ],
      "type": "VEC3"
    },
    {
      "bufferView": 2,
      "byteOffset": 102336,
      "componentType": 5126,
      "count": 320,
      "max": [
        1.0,
        1.0,
        0.9936547875404358
      ],
      "min": [
        -1.0,
        -1.0,
        0.0
      ],
      "type": "VEC3"
    },
    {
      "bufferView": 1,
      "byteOffset": 32832,
      "componentType": 5126,
      "count": 320,
      "max": [
        0.6590440273284912,
        0.385468989610672
      ],
      "min": [
        0.5274350047111511,
        0.2538599967956543
      ],
      "type": "VEC2"
    },
    {
      "bufferView": 0,
      "byteOffset": 53352,
      "componentType": 5125,
      "count": 1818,
      "type": "SCALAR"
    }
  ],
  "asset": {
    "extras": {
      "author": "rkd.zone (https://sketchfab.com/rkd.zone)",
      "license": "CC-BY-4.0 (http://creativecommons.org/licenses/by/4.0/)",
      "source": "https://sketchfab.com/3d-models/dreamcast-vmu-37cecdef437e4f72ba5a0e9dafdf6bd5",
      "title": "Dreamcast vmu"
    },
    "generator": "Sketchfab-12.67.0",
    "version": "2.0"
  },
  "bufferViews": [
    {
      "buffer": 0,
      "byteLength": 60624,
      "name": "floatBufferViews",
      "target": 34963
    },
    {
      "buffer": 0,
      "byteLength": 35392,
      "byteOffset": 60624,
      "byteStride": 8,
      "name": "floatBufferViews",
      "target": 34962
    },
    {
      "buffer": 0,
      "byteLength": 106176,
      "byteOffset": 96016,
      "byteStride": 12,
      "name": "floatBufferViews",
      "target": 34962
    }
  ],
  "buffers": [
    {
      "byteLength": 202192,
      "uri": "scene.bin"
    }
  ],
  "images": [
    {
      "uri": "textures/texture_baseColor.png"
    }
  ],
  "materials": [
    {
      "doubleSided": true,
      "name": "texture",
      "pbrMetallicRoughness": {
        "baseColorFactor": [
          0.5748856707317073,
          0.5748856707317073,
          0.5748856707317073,
          1.0
        ],
        "baseColorTexture": {
          "index": 0
        },
        "metallicFactor": 0.0
      }
    }
  ],
  "meshes": [
    {
      "name": "Object_0",
      "primitives": [
        {
          "attributes": {
            "NORMAL": 1,
            "POSITION": 0,
            "TEXCOORD_0": 2
          },
          "indices": 3,
          "material": 0,
          "mode": 4
        }
      ]
    },
    {
      "name": "Object_1",
      "primitives": [
        {
          "attributes": {
            "NORMAL": 5,
            "POSITION": 4,
            "TEXCOORD_0": 6
          },
          "indices": 7,
          "material": 0,
          "mode": 4
        }
      ]
    },
    {
      "name": "Object_2",
      "primitives": [
        {
          "attributes": {
            "NORMAL": 9,
            "POSITION": 8,
            "TEXCOORD_0": 10
          },
          "indices": 11,
          "material": 0,
          "mode": 4
        }
      ]
    }
  ],
  "nodes": [
    {
      "children": [
        1
      ],
      "matrix": [
        1.0,
        0.0,
        0.0,
        0.0,
        0.0,
        2.220446049250313e-16,
        -1.0,
        0.0,
        0.0,
        1.0,
        2.220446049250313e-16,
        0.0,
        0.0,
        0.0,
        0.0,
        1.0
      ],
      "name": "Sketchfab_model"
    },
    {
      "children": [
        2,
        3,
        4
      ],
      "name": "vmu.obj.cleaner.materialmerger.gles"
    },
    {
      "mesh": 0,
      "name": "Object_2"
    },
    {
      "mesh": 1,
      "name": "Object_3"
    },
    {
      "mesh": 2,
      "name": "Object_4"
    }
  ],
  "samplers": [
    {
      "magFilter": 9729,
      "minFilter": 9987,
      "wrapS": 10497,
      "wrapT": 10497
    }
  ],
  "scene": 0,
  "scenes": [
    {
      "name": "Sketchfab_Scene",
      "nodes": [
        0
      ]
    }
  ],
  "textures": [
    {
      "sampler": 0,
      "source": 0
    }
  ]
}
